<?xml version="1.0" encoding="UTF-8" standalone="no"?><!-- Generator: Gravit.io --><svg xmlns="http://www.w3.org/2000/svg" xmlns:xlink="http://www.w3.org/1999/xlink" style="isolation:isolate" viewBox="-670.14 -13.85 3147.14 556.229" width="3147.14pt" height="556.229pt"><defs><clipPath id="_clipPath_TotVGGfIJBP80pcX5sHnrHgCNIRMu48y"><rect x="-670.14" y="-13.85" width="3147.14" height="556.229"/></clipPath></defs><g clip-path="url(#_clipPath_TotVGGfIJBP80pcX5sHnrHgCNIRMu48y)"><g style="isolation:isolate"><path d=" M -446.48 288.231 L -345.5 511.241 L -450.51 511.241 L -540.81 308.241 L -574.24 308.241 L -574.24 511.241 L -670.14 511.241 L -670.14 -13.759 L -527.34 -13.759 C -516.4 -13.759 -505.47 -13.049 -494.62 -11.639 C -485.77 -10.479 -477.04 -8.589 -468.5 -5.989 C -464.27 -4.699 -460.1 -3.209 -456 -1.519 C -452.18 0.061 -448.45 1.831 -444.81 3.801 C -441.4 5.651 -438.08 7.671 -434.88 9.871 C -431.78 11.991 -428.8 14.281 -425.96 16.741 C -422.97 19.311 -420.15 22.081 -417.51 25.031 C -414.85 27.991 -412.38 31.131 -410.12 34.411 C -407.77 37.811 -405.64 41.361 -403.75 45.031 C -401.75 48.901 -399.98 52.881 -398.45 56.951 C -397.76 58.781 -397.11 60.631 -396.51 62.501 C -395.89 64.431 -395.32 66.381 -394.79 68.341 C -394.39 69.831 -394.01 71.331 -393.66 72.841 C -393.3 74.391 -392.97 75.951 -392.66 77.511 C -391.58 82.961 -390.79 88.461 -390.29 93.991 C -389.72 100.291 -389.44 106.611 -389.44 112.941 L -389.44 180.141 C -389.44 188.191 -389.94 196.241 -390.93 204.231 C -391.78 211.071 -393.15 217.831 -395.02 224.461 C -396.66 230.281 -398.73 235.951 -401.23 241.451 C -403.56 246.561 -406.31 251.461 -409.46 256.101 C -412.55 260.641 -416.03 264.911 -419.85 268.851 C -423.69 272.811 -427.86 276.421 -432.33 279.651 C -436.8 282.891 -441.53 285.761 -446.48 288.231 Z  M -485.34 106.641 L -485.34 187.141 C -485.34 190.691 -485.57 194.231 -486.02 197.751 C -486.32 200.071 -486.81 202.351 -487.49 204.581 C -487.84 205.701 -488.24 206.801 -488.7 207.871 C -489.05 208.701 -489.46 209.491 -489.91 210.271 C -490.3 210.931 -490.72 211.561 -491.19 212.161 C -491.58 212.671 -492.01 213.161 -492.46 213.621 C -492.91 214.071 -493.39 214.491 -493.89 214.871 C -494.49 215.331 -495.11 215.751 -495.76 216.131 C -496.52 216.581 -497.3 216.981 -498.1 217.331 C -499.15 217.791 -500.23 218.191 -501.32 218.531 C -501.82 218.681 -502.33 218.831 -502.83 218.961 C -503.4 219.111 -503.98 219.251 -504.55 219.381 C -506.54 219.821 -508.55 220.141 -510.58 220.331 C -513.36 220.601 -516.15 220.741 -518.94 220.741 L -574.24 220.741 L -574.24 73.741 L -518.94 73.741 C -515.4 73.741 -511.86 73.961 -508.35 74.401 C -506.03 74.681 -503.73 75.161 -501.49 75.821 C -500.33 76.151 -499.2 76.551 -498.09 77.011 C -497.25 77.361 -496.43 77.761 -495.64 78.211 C -494.98 78.591 -494.34 79.011 -493.72 79.471 C -493.22 79.841 -492.73 80.251 -492.28 80.691 C -491.85 81.111 -491.45 81.551 -491.08 82.021 C -490.64 82.591 -490.23 83.181 -489.87 83.791 C -489.43 84.521 -489.04 85.281 -488.7 86.061 C -488.24 87.091 -487.85 88.151 -487.51 89.231 C -487.36 89.721 -487.21 90.221 -487.08 90.721 C -486.93 91.281 -486.8 91.851 -486.67 92.421 C -486.24 94.371 -485.93 96.351 -485.74 98.351 C -485.47 101.101 -485.34 103.871 -485.34 106.641 Z  M -66.54 511.241 L -331.14 511.241 L -331.14 -13.759 L -66.54 -13.759 L -66.54 72.341 L -235.24 72.341 L -235.24 197.641 L -84.04 197.641 L -84.04 283.741 L -235.24 283.741 L -235.24 425.141 L -66.54 425.141 L -66.54 511.241 Z  M 896.96 374.741 L 896.96 -13.759 L 801.06 -13.759 L 801.06 388.041 C 801.06 389.301 801 390.551 800.88 391.801 C 800.77 392.921 800.6 394.031 800.38 395.141 C 800.17 396.181 799.91 397.211 799.59 398.221 C 799.28 399.211 798.92 400.181 798.52 401.121 C 798.11 402.081 797.64 403.011 797.13 403.921 C 796.59 404.891 796 405.821 795.37 406.731 C 794.68 407.701 793.95 408.641 793.17 409.541 C 792.28 410.571 791.35 411.561 790.37 412.491 C 789.49 413.331 788.58 414.121 787.63 414.871 C 786.71 415.581 785.76 416.251 784.78 416.881 C 783.8 417.501 782.79 418.071 781.75 418.591 C 780.66 419.141 779.56 419.621 778.43 420.061 C 775.94 421.011 773.36 421.721 770.74 422.171 C 767.34 422.751 763.91 423.041 760.46 423.041 L 735.96 423.041 C 732.52 423.041 729.08 422.751 725.69 422.171 C 723.06 421.721 720.49 421.011 718 420.061 C 716.87 419.621 715.76 419.141 714.68 418.591 C 713.64 418.071 712.63 417.501 711.64 416.881 C 710.66 416.251 709.71 415.581 708.8 414.871 C 707.85 414.121 706.93 413.331 706.06 412.491 C 705.08 411.561 704.14 410.571 703.25 409.541 C 702.47 408.641 701.74 407.701 701.06 406.731 C 700.42 405.821 699.83 404.891 699.29 403.921 C 698.78 403.011 698.32 402.081 697.91 401.121 C 697.5 400.181 697.14 399.211 696.84 398.221 C 696.52 397.211 696.25 396.181 696.04 395.141 C 695.82 394.031 695.65 392.921 695.55 391.801 C 695.42 390.551 695.36 389.301 695.36 388.041 L 695.36 -13.759 L 599.46 -13.759 L 599.46 374.741 C 599.46 380.861 599.72 386.971 600.23 393.071 C 600.69 398.511 601.4 403.931 602.38 409.311 C 603.26 414.151 604.37 418.941 605.7 423.671 C 606.94 428.051 608.42 432.371 610.11 436.601 C 611.71 440.571 613.52 444.461 615.54 448.251 C 617.47 451.881 619.61 455.411 621.95 458.811 C 624.23 462.111 626.69 465.291 629.33 468.321 C 631.95 471.341 634.75 474.211 637.71 476.911 C 640.7 479.641 643.84 482.211 647.11 484.611 C 650.44 487.051 653.9 489.321 657.47 491.391 C 661.19 493.561 665.03 495.531 668.96 497.301 C 673.1 499.161 677.33 500.811 681.64 502.261 C 683.64 502.931 685.65 503.561 687.68 504.141 C 689.78 504.751 691.89 505.311 694.01 505.831 C 695.62 506.221 697.24 506.601 698.86 506.941 C 700.54 507.301 702.21 507.631 703.9 507.941 C 709.94 509.041 716.04 509.851 722.17 510.371 C 729.09 510.951 736.02 511.241 742.96 511.241 L 753.46 511.241 C 765.21 511.241 776.94 510.361 788.55 508.611 C 798.17 507.161 807.62 504.801 816.79 501.571 C 820.88 500.131 824.89 498.491 828.83 496.671 C 832.57 494.941 836.23 493.021 839.78 490.911 C 843.19 488.891 846.5 486.691 849.69 484.331 C 852.83 482.021 855.84 479.541 858.72 476.911 C 861.77 474.121 864.65 471.161 867.35 468.031 C 870.06 464.901 872.58 461.601 874.91 458.171 C 877.3 454.641 879.48 450.971 881.45 447.191 C 883.5 443.241 885.33 439.181 886.93 435.031 C 887.67 433.111 888.37 431.171 889.02 429.211 C 889.68 427.191 890.31 425.161 890.88 423.111 C 891.33 421.531 891.74 419.941 892.13 418.341 C 892.53 416.691 892.91 415.041 893.25 413.391 C 894.49 407.441 895.41 401.421 895.98 395.371 C 896.64 388.511 896.96 381.631 896.96 374.741 Z  M 1217.06 511.241 L 952.46 511.241 L 952.46 -13.759 L 1217.06 -13.759 L 1217.06 72.341 L 1048.36 72.341 L 1048.36 197.641 L 1199.56 197.641 L 1199.56 283.741 L 1048.36 283.741 L 1048.36 425.141 L 1217.06 425.141 L 1217.06 511.241 Z  M 1490.86 375.741 L 1490.86 329.541 C 1490.86 318.751 1490.1 307.981 1488.59 297.301 C 1487.35 288.591 1485.32 280.001 1482.53 271.651 C 1481.15 267.551 1479.57 263.521 1477.79 259.571 C 1476.11 255.871 1474.22 252.261 1472.14 248.761 C 1470.16 245.451 1468 242.251 1465.66 239.171 C 1463.38 236.171 1460.93 233.311 1458.32 230.601 C 1455.73 227.911 1453 225.371 1450.14 222.971 C 1447.3 220.591 1444.33 218.371 1441.25 216.311 C 1438.14 214.221 1434.91 212.311 1431.59 210.571 C 1428.18 208.781 1424.69 207.181 1421.12 205.761 C 1417.38 204.281 1413.57 202.991 1409.71 201.891 C 1405.62 200.741 1401.47 199.781 1397.29 199.021 C 1392.73 198.191 1388.14 197.581 1383.53 197.181 C 1378.49 196.751 1373.43 196.541 1368.36 196.541 L 1354.36 196.541 C 1351.62 196.541 1348.89 196.291 1346.19 195.801 C 1344.13 195.431 1342.11 194.841 1340.17 194.051 C 1339.27 193.681 1338.4 193.271 1337.55 192.821 C 1336.71 192.371 1335.9 191.881 1335.11 191.351 C 1334.31 190.811 1333.53 190.221 1332.79 189.601 C 1331.99 188.931 1331.22 188.221 1330.49 187.471 C 1329.02 185.961 1327.7 184.321 1326.54 182.551 C 1325.48 180.931 1324.58 179.201 1323.86 177.391 C 1323.1 175.461 1322.52 173.461 1322.16 171.421 C 1321.69 168.851 1321.46 166.251 1321.46 163.641 L 1321.46 110.441 C 1321.46 109.181 1321.52 107.931 1321.65 106.681 C 1321.75 105.561 1321.92 104.451 1322.14 103.341 C 1322.35 102.301 1322.62 101.271 1322.94 100.261 C 1323.24 99.271 1323.6 98.301 1324.01 97.361 C 1324.42 96.401 1324.88 95.471 1325.39 94.561 C 1325.93 93.591 1326.52 92.661 1327.16 91.751 C 1327.84 90.781 1328.57 89.841 1329.35 88.941 C 1330.24 87.911 1331.18 86.921 1332.16 85.991 C 1333.03 85.151 1333.95 84.361 1334.9 83.611 C 1335.81 82.901 1336.76 82.231 1337.74 81.601 C 1338.73 80.981 1339.74 80.411 1340.78 79.891 C 1341.86 79.341 1342.97 78.861 1344.1 78.421 C 1346.59 77.471 1349.16 76.761 1351.79 76.311 C 1355.18 75.731 1358.62 75.441 1362.06 75.441 L 1480.66 75.441 L 1480.66 -12.759 L 1369.06 -12.759 C 1357.32 -12.759 1345.59 -11.879 1333.98 -10.129 C 1324.36 -8.679 1314.9 -6.319 1305.73 -3.089 C 1301.65 -1.649 1297.63 -0.009 1293.7 1.811 C 1289.95 3.541 1286.3 5.461 1282.75 7.571 C 1279.33 9.591 1276.02 11.791 1272.83 14.151 C 1269.7 16.461 1266.68 18.941 1263.81 21.571 C 1260.76 24.361 1257.88 27.321 1255.18 30.451 C 1252.47 33.581 1249.94 36.881 1247.62 40.311 C 1245.22 43.841 1243.04 47.511 1241.08 51.291 C 1239.03 55.241 1237.2 59.301 1235.6 63.451 C 1234.85 65.371 1234.16 67.311 1233.51 69.271 C 1232.84 71.291 1232.22 73.321 1231.64 75.371 C 1231.2 76.951 1230.78 78.541 1230.39 80.141 C 1229.99 81.791 1229.62 83.441 1229.27 85.091 C 1228.03 91.041 1227.12 97.061 1226.54 103.111 C 1225.89 109.971 1225.56 116.851 1225.56 123.741 L 1225.56 150.341 C 1225.56 156.301 1225.8 162.251 1226.27 168.191 C 1226.69 173.511 1227.35 178.821 1228.25 184.091 C 1229.06 188.841 1230.08 193.551 1231.31 198.211 C 1232.46 202.531 1233.81 206.791 1235.38 210.981 C 1236.85 214.911 1238.52 218.761 1240.38 222.521 C 1242.16 226.131 1244.13 229.641 1246.28 233.031 C 1248.37 236.321 1250.63 239.501 1253.05 242.551 C 1255.45 245.561 1258.01 248.451 1260.72 251.191 C 1263.51 254.021 1266.46 256.711 1269.53 259.231 C 1272.58 261.731 1275.75 264.071 1279.04 266.241 C 1282.35 268.421 1285.78 270.431 1289.3 272.251 C 1292.89 274.111 1296.58 275.791 1300.34 277.271 C 1304.26 278.811 1308.25 280.161 1312.3 281.301 C 1316.57 282.501 1320.89 283.491 1325.25 284.281 C 1329.96 285.141 1334.7 285.771 1339.47 286.181 C 1344.66 286.621 1349.86 286.841 1355.06 286.841 L 1369.06 286.841 C 1371.8 286.841 1374.53 287.091 1377.23 287.581 C 1378.91 287.891 1380.55 288.381 1382.12 289.061 C 1382.76 289.341 1383.38 289.651 1383.99 290.001 C 1384.52 290.301 1385.04 290.641 1385.54 291.011 C 1386.02 291.371 1386.48 291.751 1386.91 292.161 C 1387.37 292.591 1387.8 293.051 1388.2 293.531 C 1389.18 294.701 1390.06 295.971 1390.8 297.311 C 1391.64 298.801 1392.33 300.371 1392.89 301.991 C 1393.55 303.921 1394.03 305.911 1394.34 307.931 C 1394.75 310.681 1394.96 313.461 1394.96 316.241 L 1394.96 389.041 C 1394.96 390.301 1394.9 391.551 1394.78 392.801 C 1394.67 393.921 1394.5 395.031 1394.28 396.141 C 1394.07 397.181 1393.81 398.211 1393.49 399.221 C 1393.18 400.211 1392.82 401.181 1392.42 402.121 C 1392.01 403.081 1391.54 404.011 1391.03 404.921 C 1390.49 405.891 1389.9 406.821 1389.27 407.731 C 1388.58 408.701 1387.85 409.641 1387.07 410.541 C 1386.18 411.571 1385.25 412.561 1384.27 413.491 C 1383.39 414.331 1382.48 415.121 1381.53 415.871 C 1380.61 416.581 1379.66 417.251 1378.68 417.881 C 1377.7 418.501 1376.69 419.071 1375.65 419.591 C 1374.56 420.141 1373.46 420.621 1372.33 421.061 C 1369.84 422.011 1367.26 422.721 1364.64 423.171 C 1361.24 423.751 1357.81 424.041 1354.36 424.041 L 1237.46 424.041 L 1237.46 512.241 L 1347.36 512.241 C 1359.11 512.241 1370.84 511.361 1382.45 509.611 C 1392.07 508.161 1401.52 505.801 1410.69 502.571 C 1414.78 501.131 1418.79 499.491 1422.73 497.671 C 1426.47 495.941 1430.13 494.021 1433.68 491.911 C 1437.09 489.891 1440.4 487.691 1443.59 485.331 C 1446.73 483.021 1449.74 480.541 1452.62 477.911 C 1455.67 475.121 1458.55 472.161 1461.25 469.031 C 1463.96 465.901 1466.48 462.601 1468.81 459.171 C 1471.2 455.641 1473.38 451.971 1475.35 448.191 C 1477.4 444.241 1479.23 440.181 1480.83 436.031 C 1481.57 434.111 1482.27 432.171 1482.92 430.211 C 1483.58 428.191 1484.21 426.161 1484.78 424.111 C 1485.23 422.531 1485.64 420.941 1486.03 419.341 C 1486.43 417.691 1486.81 416.041 1487.15 414.391 C 1488.39 408.441 1489.31 402.421 1489.88 396.371 C 1490.54 389.511 1490.86 382.631 1490.86 375.741 Z  M 1792.36 75.441 L 1684.56 75.441 L 1684.56 512.241 L 1588.66 512.241 L 1588.66 75.441 L 1480.86 75.441 L 1480.86 -12.759 L 1792.36 -12.759 L 1792.36 75.441 Z  M 2037.02 288.231 L 2138 511.241 L 2032.99 511.241 L 1942.69 308.241 L 1909.26 308.241 L 1909.26 511.241 L 1813.36 511.241 L 1813.36 -13.759 L 1956.16 -13.759 C 1967.1 -13.759 1978.03 -13.049 1988.88 -11.639 C 1997.73 -10.479 2006.46 -8.589 2015 -5.989 C 2019.23 -4.699 2023.4 -3.209 2027.5 -1.519 C 2031.32 0.061 2035.05 1.831 2038.69 3.801 C 2042.1 5.651 2045.42 7.671 2048.62 9.871 C 2051.72 11.991 2054.7 14.281 2057.54 16.741 C 2060.53 19.311 2063.35 22.081 2065.99 25.031 C 2068.65 27.991 2071.12 31.131 2073.38 34.411 C 2075.73 37.811 2077.86 41.361 2079.75 45.031 C 2081.75 48.901 2083.52 52.881 2085.05 56.951 C 2085.74 58.781 2086.39 60.631 2086.99 62.501 C 2087.61 64.431 2088.18 66.381 2088.71 68.341 C 2089.11 69.831 2089.49 71.331 2089.84 72.841 C 2090.2 74.391 2090.53 75.951 2090.84 77.511 C 2091.92 82.961 2092.71 88.461 2093.21 93.991 C 2093.78 100.291 2094.06 106.611 2094.06 112.941 L 2094.06 180.141 C 2094.06 188.191 2093.56 196.241 2092.57 204.231 C 2091.72 211.071 2090.35 217.831 2088.48 224.461 C 2086.84 230.281 2084.77 235.951 2082.27 241.451 C 2079.94 246.561 2077.19 251.461 2074.04 256.101 C 2070.95 260.641 2067.47 264.911 2063.65 268.851 C 2059.81 272.811 2055.64 276.421 2051.17 279.651 C 2046.7 282.891 2041.97 285.761 2037.02 288.231 Z  M 1998.16 106.641 L 1998.16 187.141 C 1998.16 190.691 1997.93 194.231 1997.48 197.751 C 1997.18 200.071 1996.69 202.351 1996.01 204.581 C 1995.66 205.701 1995.26 206.801 1994.8 207.871 C 1994.45 208.701 1994.04 209.491 1993.59 210.271 C 1993.2 210.931 1992.78 211.561 1992.31 212.161 C 1991.92 212.671 1991.49 213.161 1991.04 213.621 C 1990.59 214.071 1990.11 214.491 1989.61 214.871 C 1989.01 215.331 1988.39 215.751 1987.74 216.131 C 1986.98 216.581 1986.2 216.981 1985.4 217.331 C 1984.35 217.791 1983.27 218.191 1982.18 218.531 C 1981.68 218.681 1981.17 218.831 1980.67 218.961 C 1980.1 219.111 1979.52 219.251 1978.95 219.381 C 1976.96 219.821 1974.95 220.141 1972.92 220.331 C 1970.14 220.601 1967.35 220.741 1964.56 220.741 L 1909.26 220.741 L 1909.26 73.741 L 1964.56 73.741 C 1968.1 73.741 1971.64 73.961 1975.15 74.401 C 1977.47 74.681 1979.77 75.161 1982.01 75.821 C 1983.17 76.151 1984.3 76.551 1985.41 77.011 C 1986.25 77.361 1987.07 77.761 1987.86 78.211 C 1988.52 78.591 1989.16 79.011 1989.78 79.471 C 1990.28 79.841 1990.77 80.251 1991.22 80.691 C 1991.65 81.111 1992.05 81.551 1992.42 82.021 C 1992.86 82.591 1993.27 83.181 1993.63 83.791 C 1994.07 84.521 1994.46 85.281 1994.8 86.061 C 1995.26 87.091 1995.65 88.151 1995.99 89.231 C 1996.14 89.721 1996.29 90.221 1996.42 90.721 C 1996.57 91.281 1996.7 91.851 1996.83 92.421 C 1997.26 94.371 1997.57 96.351 1997.76 98.351 C 1998.03 101.101 1998.16 103.871 1998.16 106.641 Z  M 2376.02 288.231 L 2477 511.241 L 2371.99 511.241 L 2281.69 308.241 L 2248.26 308.241 L 2248.26 511.241 L 2152.36 511.241 L 2152.36 -13.759 L 2295.16 -13.759 C 2306.1 -13.759 2317.03 -13.049 2327.88 -11.639 C 2336.73 -10.479 2345.46 -8.589 2354 -5.989 C 2358.23 -4.699 2362.4 -3.209 2366.5 -1.519 C 2370.32 0.061 2374.05 1.831 2377.69 3.801 C 2381.1 5.651 2384.42 7.671 2387.62 9.871 C 2390.72 11.991 2393.7 14.281 2396.54 16.741 C 2399.53 19.311 2402.35 22.081 2404.99 25.031 C 2407.65 27.991 2410.12 31.131 2412.38 34.411 C 2414.73 37.811 2416.86 41.361 2418.75 45.031 C 2420.75 48.901 2422.52 52.881 2424.05 56.951 C 2424.74 58.781 2425.39 60.631 2425.99 62.501 C 2426.61 64.431 2427.18 66.381 2427.71 68.341 C 2428.11 69.831 2428.49 71.331 2428.84 72.841 C 2429.2 74.391 2429.53 75.951 2429.84 77.511 C 2430.92 82.961 2431.71 88.461 2432.21 93.991 C 2432.78 100.291 2433.06 106.611 2433.06 112.941 L 2433.06 180.141 C 2433.06 188.191 2432.56 196.241 2431.57 204.231 C 2430.72 211.071 2429.35 217.831 2427.48 224.461 C 2425.84 230.281 2423.77 235.951 2421.27 241.451 C 2418.94 246.561 2416.19 251.461 2413.04 256.101 C 2409.95 260.641 2406.47 264.911 2402.65 268.851 C 2398.81 272.811 2394.64 276.421 2390.17 279.651 C 2385.7 282.891 2380.97 285.761 2376.02 288.231 Z  M 2337.16 106.641 L 2337.16 187.141 C 2337.16 190.691 2336.93 194.231 2336.48 197.751 C 2336.18 200.071 2335.69 202.351 2335.01 204.581 C 2334.66 205.701 2334.26 206.801 2333.8 207.871 C 2333.45 208.701 2333.04 209.491 2332.59 210.271 C 2332.2 210.931 2331.78 211.561 2331.31 212.161 C 2330.92 212.671 2330.49 213.161 2330.04 213.621 C 2329.59 214.071 2329.11 214.491 2328.61 214.871 C 2328.01 215.331 2327.39 215.751 2326.74 216.131 C 2325.98 216.581 2325.2 216.981 2324.4 217.331 C 2323.35 217.791 2322.27 218.191 2321.18 218.531 C 2320.68 218.681 2320.17 218.831 2319.67 218.961 C 2319.1 219.111 2318.52 219.251 2317.95 219.381 C 2315.96 219.821 2313.95 220.141 2311.92 220.331 C 2309.14 220.601 2306.35 220.741 2303.56 220.741 L 2248.26 220.741 L 2248.26 73.741 L 2303.56 73.741 C 2307.1 73.741 2310.64 73.961 2314.15 74.401 C 2316.47 74.681 2318.77 75.161 2321.01 75.821 C 2322.17 76.151 2323.3 76.551 2324.41 77.011 C 2325.25 77.361 2326.07 77.761 2326.86 78.211 C 2327.52 78.591 2328.16 79.011 2328.78 79.471 C 2329.28 79.841 2329.77 80.251 2330.22 80.691 C 2330.65 81.111 2331.05 81.551 2331.42 82.021 C 2331.86 82.591 2332.27 83.181 2332.63 83.791 C 2333.07 84.521 2333.46 85.281 2333.8 86.061 C 2334.26 87.091 2334.65 88.151 2334.99 89.231 C 2335.14 89.721 2335.29 90.221 2335.42 90.721 C 2335.57 91.281 2335.7 91.851 2335.83 92.421 C 2336.26 94.371 2336.57 96.351 2336.76 98.351 C 2337.03 101.101 2337.16 103.871 2337.16 106.641 Z " fill-rule="evenodd" fill="rgb(255,255,255)"/><g><linearGradient id="_lgradient_4" x1="-0.20111085114044666" y1="0.28378621023528544" x2="0.6735730156973037" y2="1.2241567204419832" gradientTransform="matrix(598,0,0,556.229,-8.95,-13.85)" gradientUnits="userSpaceOnUse"><stop offset="0%" stop-opacity="1" style="stop-color:rgb(160,119,225)"/><stop offset="98.26086956521739%" stop-opacity="1" style="stop-color:rgb(255,255,255)"/></linearGradient><path d=" M 165.54 311.834 C 165.431 311.685 165.323 311.534 165.216 311.382 L 101.839 356.206 C 80.48 325.967 67.928 289.073 67.928 249.271 L 67.928 249.271 C 67.928 146.806 151.116 63.618 253.581 63.618 C 270.835 63.618 287.542 65.977 303.398 70.389 L 303.379 70.46 L 303.379 70.46 C 341.964 81.798 364.68 121.988 354.215 161.046 C 351.764 170.192 347.706 178.482 342.426 185.693 C 342.617 185.954 342.805 186.218 342.992 186.482 L 405.348 142.373 L 405.348 142.373 C 426.691 172.605 439.234 209.485 439.234 249.271 C 439.234 351.736 356.046 434.924 253.581 434.924 C 236.616 434.924 220.18 432.644 204.562 428.373 L 204.562 428.373 L 204.566 428.358 C 165.505 417.337 142.411 376.868 152.947 337.547 C 155.52 327.944 159.864 319.286 165.54 311.834 Z  M 471.852 394.527 L 552.913 475.588 L 589.05 511.725 L 474.648 542.379 L 399.304 467.034 C 357.602 494.935 307.477 511.212 253.581 511.212 C 108.686 511.212 -8.95 393.576 -8.95 248.681 C -8.95 103.786 108.686 -13.85 253.581 -13.85 C 398.476 -13.85 516.112 103.786 516.112 248.681 C 516.112 302.63 499.803 352.8 471.852 394.527 L 471.852 394.527 L 471.852 394.527 L 471.852 394.527 L 471.852 394.527 Z " fill-rule="evenodd" fill="url(#_lgradient_4)"/><linearGradient id="_lgradient_5" x1="1.8470219133279322" y1="2.0995678214453686" x2="-1.00589590327627" y2="-0.371131363950834" gradientTransform="matrix(162.002,0,0,187.064,199.585,157.45)" gradientUnits="userSpaceOnUse"><stop offset="0%" stop-opacity="1" style="stop-color:rgb(255,255,255)"/><stop offset="97.3913043478261%" stop-opacity="1" style="stop-color:rgb(160,119,225)"/></linearGradient><path d=" M 347.763 258.963 L 280.586 297.748 L 213.408 336.533 C 205.779 340.938 199.585 337.361 199.585 328.552 L 199.585 250.982 L 199.585 173.411 C 199.585 164.602 205.779 161.026 213.408 165.431 L 280.586 204.216 L 347.763 243.001 C 355.393 247.406 355.393 254.558 347.763 258.963 Z " fill="url(#_lgradient_5)"/></g></g></g></svg>