<?xml version="1.0" encoding="UTF-8" standalone="no"?><!-- Generator: Gravit.io --><svg xmlns="http://www.w3.org/2000/svg" xmlns:xlink="http://www.w3.org/1999/xlink" style="isolation:isolate" viewBox="-14.89 -13.85 597.902 556.138" width="597.902pt" height="556.138pt"><defs><clipPath id="_clipPath_ACXz0LeWSmXZpC6XCbQ6FgvcRptyhLIj"><rect x="-14.89" y="-13.85" width="597.902" height="556.138"/></clipPath></defs><g clip-path="url(#_clipPath_ACXz0LeWSmXZpC6XCbQ6FgvcRptyhLIj)"><g style="isolation:isolate"><path d=" M 159.572 311.781 C 159.462 311.631 159.355 311.48 159.248 311.329 L 95.881 356.145 C 74.525 325.911 61.975 289.024 61.975 249.228 L 61.975 249.228 C 61.975 146.78 145.15 63.605 247.598 63.605 C 264.849 63.605 281.554 65.964 297.407 70.376 L 297.387 70.446 L 297.387 70.446 C 335.967 81.782 358.679 121.966 348.215 161.017 C 345.765 170.162 341.708 178.451 336.428 185.661 C 336.619 185.921 336.807 186.185 336.994 186.449 L 399.34 142.347 L 399.34 142.347 C 420.68 172.574 433.221 209.448 433.221 249.228 C 433.221 351.676 350.046 434.851 247.598 434.851 C 230.636 434.851 214.202 432.571 198.587 428.301 L 198.587 428.301 L 198.591 428.286 C 159.537 417.266 136.446 376.804 146.981 337.489 C 149.553 327.888 153.896 319.231 159.572 311.781 Z  M 465.833 394.46 L 546.881 475.508 L 583.012 511.639 L 468.629 542.288 L 393.297 466.956 C 351.602 494.852 301.485 511.126 247.598 511.126 C 102.727 511.126 -14.89 393.509 -14.89 248.638 C -14.89 103.767 102.727 -13.85 247.598 -13.85 C 392.469 -13.85 510.086 103.767 510.086 248.638 C 510.086 302.578 493.78 352.74 465.833 394.46 L 465.833 394.46 L 465.833 394.46 L 465.833 394.46 L 465.833 394.46 Z " fill-rule="evenodd" fill="rgb(83,34,151)"/><path d=" M 342.558 264.026 L 279.428 300.475 L 216.298 336.923 C 209.129 341.062 203.308 337.701 203.308 329.423 L 203.308 256.526 L 203.308 183.63 C 203.308 175.351 209.129 171.991 216.298 176.13 L 279.428 212.578 L 342.558 249.026 C 349.728 253.166 349.728 259.887 342.558 264.026 Z " fill="rgb(83,34,151)"/></g></g></svg>