<?xml version="1.0" encoding="UTF-8" standalone="no"?><!-- Generator: Gravit.io --><svg xmlns="http://www.w3.org/2000/svg" xmlns:xlink="http://www.w3.org/1999/xlink" style="isolation:isolate" viewBox="-670.19 -13.941 3147.14 556.229" width="3147.14pt" height="556.229pt"><defs><clipPath id="_clipPath_EWdOZ2p8GhvOw1lSHg7P5mfw38OnEW0q"><rect x="-670.19" y="-13.941" width="3147.14" height="556.229"/></clipPath></defs><g clip-path="url(#_clipPath_EWdOZ2p8GhvOw1lSHg7P5mfw38OnEW0q)"><g style="isolation:isolate"><path d=" M -446.53 288.14 L -345.55 511.15 L -450.56 511.15 L -540.86 308.15 L -574.29 308.15 L -574.29 511.15 L -670.19 511.15 L -670.19 -13.85 L -527.39 -13.85 C -516.45 -13.85 -505.52 -13.14 -494.67 -11.73 C -485.82 -10.57 -477.09 -8.68 -468.55 -6.08 C -464.32 -4.79 -460.15 -3.3 -456.05 -1.61 C -452.23 -0.03 -448.5 1.74 -444.86 3.71 C -441.45 5.56 -438.13 7.58 -434.93 9.78 C -431.83 11.9 -428.85 14.19 -426.01 16.65 C -423.02 19.22 -420.2 21.99 -417.56 24.94 C -414.9 27.9 -412.43 31.04 -410.17 34.32 C -407.82 37.72 -405.69 41.27 -403.8 44.94 C -401.8 48.81 -400.03 52.79 -398.5 56.86 C -397.81 58.69 -397.16 60.54 -396.56 62.41 C -395.94 64.34 -395.37 66.29 -394.84 68.25 C -394.44 69.74 -394.06 71.24 -393.71 72.75 C -393.35 74.3 -393.02 75.86 -392.71 77.42 C -391.63 82.87 -390.84 88.37 -390.34 93.9 C -389.77 100.2 -389.49 106.52 -389.49 112.85 L -389.49 180.05 C -389.49 188.1 -389.99 196.15 -390.98 204.14 C -391.83 210.98 -393.2 217.74 -395.07 224.37 C -396.71 230.19 -398.78 235.86 -401.28 241.36 C -403.61 246.47 -406.36 251.37 -409.51 256.01 C -412.6 260.55 -416.08 264.82 -419.9 268.76 C -423.74 272.72 -427.91 276.33 -432.38 279.56 C -436.85 282.8 -441.58 285.67 -446.53 288.14 Z  M -485.39 106.55 L -485.39 187.05 C -485.39 190.6 -485.62 194.14 -486.07 197.66 C -486.37 199.98 -486.86 202.26 -487.54 204.49 C -487.89 205.61 -488.29 206.71 -488.75 207.78 C -489.1 208.61 -489.51 209.4 -489.96 210.18 C -490.35 210.84 -490.77 211.47 -491.24 212.07 C -491.63 212.58 -492.06 213.07 -492.51 213.53 C -492.96 213.98 -493.44 214.4 -493.94 214.78 C -494.54 215.24 -495.16 215.66 -495.81 216.04 C -496.57 216.49 -497.35 216.89 -498.15 217.24 C -499.2 217.7 -500.28 218.1 -501.37 218.44 C -501.87 218.59 -502.38 218.74 -502.88 218.87 C -503.45 219.02 -504.03 219.16 -504.6 219.29 C -506.59 219.73 -508.6 220.05 -510.63 220.24 C -513.41 220.51 -516.2 220.65 -518.99 220.65 L -574.29 220.65 L -574.29 73.65 L -518.99 73.65 C -515.45 73.65 -511.91 73.87 -508.4 74.31 C -506.08 74.59 -503.78 75.07 -501.54 75.73 C -500.38 76.06 -499.25 76.46 -498.14 76.92 C -497.3 77.27 -496.48 77.67 -495.69 78.12 C -495.03 78.5 -494.39 78.92 -493.77 79.38 C -493.27 79.75 -492.78 80.16 -492.33 80.6 C -491.9 81.02 -491.5 81.46 -491.13 81.93 C -490.69 82.5 -490.28 83.09 -489.92 83.7 C -489.48 84.43 -489.09 85.19 -488.75 85.97 C -488.29 87 -487.9 88.06 -487.56 89.14 C -487.41 89.63 -487.26 90.13 -487.13 90.63 C -486.98 91.19 -486.85 91.76 -486.72 92.33 C -486.29 94.28 -485.98 96.26 -485.79 98.26 C -485.52 101.01 -485.39 103.78 -485.39 106.55 Z  M -66.59 511.15 L -331.19 511.15 L -331.19 -13.85 L -66.59 -13.85 L -66.59 72.25 L -235.29 72.25 L -235.29 197.55 L -84.09 197.55 L -84.09 283.65 L -235.29 283.65 L -235.29 425.05 L -66.59 425.05 L -66.59 511.15 Z  M 896.91 374.65 L 896.91 -13.85 L 801.01 -13.85 L 801.01 387.95 C 801.01 389.21 800.95 390.46 800.83 391.71 C 800.72 392.83 800.55 393.94 800.33 395.05 C 800.12 396.09 799.86 397.12 799.54 398.13 C 799.23 399.12 798.87 400.09 798.47 401.03 C 798.06 401.99 797.59 402.92 797.08 403.83 C 796.54 404.8 795.95 405.73 795.32 406.64 C 794.63 407.61 793.9 408.55 793.12 409.45 C 792.23 410.48 791.3 411.47 790.32 412.4 C 789.44 413.24 788.53 414.03 787.58 414.78 C 786.66 415.49 785.71 416.16 784.73 416.79 C 783.75 417.41 782.74 417.98 781.7 418.5 C 780.61 419.05 779.51 419.53 778.38 419.97 C 775.89 420.92 773.31 421.63 770.69 422.08 C 767.29 422.66 763.86 422.95 760.41 422.95 L 735.91 422.95 C 732.47 422.95 729.03 422.66 725.64 422.08 C 723.01 421.63 720.44 420.92 717.95 419.97 C 716.82 419.53 715.71 419.05 714.63 418.5 C 713.59 417.98 712.58 417.41 711.59 416.79 C 710.61 416.16 709.66 415.49 708.75 414.78 C 707.8 414.03 706.88 413.24 706.01 412.4 C 705.03 411.47 704.09 410.48 703.2 409.45 C 702.42 408.55 701.69 407.61 701.01 406.64 C 700.37 405.73 699.78 404.8 699.24 403.83 C 698.73 402.92 698.27 401.99 697.86 401.03 C 697.45 400.09 697.09 399.12 696.79 398.13 C 696.47 397.12 696.2 396.09 695.99 395.05 C 695.77 393.94 695.6 392.83 695.5 391.71 C 695.37 390.46 695.31 389.21 695.31 387.95 L 695.31 -13.85 L 599.41 -13.85 L 599.41 374.65 C 599.41 380.77 599.67 386.88 600.18 392.98 C 600.64 398.42 601.35 403.84 602.33 409.22 C 603.21 414.06 604.32 418.85 605.65 423.58 C 606.89 427.96 608.37 432.28 610.06 436.51 C 611.66 440.48 613.47 444.37 615.49 448.16 C 617.42 451.79 619.56 455.32 621.9 458.72 C 624.18 462.02 626.64 465.2 629.28 468.23 C 631.9 471.25 634.7 474.12 637.66 476.82 C 640.65 479.55 643.79 482.12 647.06 484.52 C 650.39 486.96 653.85 489.23 657.42 491.3 C 661.14 493.47 664.98 495.44 668.91 497.21 C 673.05 499.07 677.28 500.72 681.59 502.17 C 683.59 502.84 685.6 503.47 687.63 504.05 C 689.73 504.66 691.84 505.22 693.96 505.74 C 695.57 506.13 697.19 506.51 698.81 506.85 C 700.49 507.21 702.16 507.54 703.85 507.85 C 709.89 508.95 715.99 509.76 722.12 510.28 C 729.04 510.86 735.97 511.15 742.91 511.15 L 753.41 511.15 C 765.16 511.15 776.89 510.27 788.5 508.52 C 798.12 507.07 807.57 504.71 816.74 501.48 C 820.83 500.04 824.84 498.4 828.78 496.58 C 832.52 494.85 836.18 492.93 839.73 490.82 C 843.14 488.8 846.45 486.6 849.64 484.24 C 852.78 481.93 855.79 479.45 858.67 476.82 C 861.72 474.03 864.6 471.07 867.3 467.94 C 870.01 464.81 872.53 461.51 874.86 458.08 C 877.25 454.55 879.43 450.88 881.4 447.1 C 883.45 443.15 885.28 439.09 886.88 434.94 C 887.62 433.02 888.32 431.08 888.97 429.12 C 889.63 427.1 890.26 425.07 890.83 423.02 C 891.28 421.44 891.69 419.85 892.08 418.25 C 892.48 416.6 892.86 414.95 893.2 413.3 C 894.44 407.35 895.36 401.33 895.93 395.28 C 896.59 388.42 896.91 381.54 896.91 374.65 Z  M 1217.01 511.15 L 952.41 511.15 L 952.41 -13.85 L 1217.01 -13.85 L 1217.01 72.25 L 1048.31 72.25 L 1048.31 197.55 L 1199.51 197.55 L 1199.51 283.65 L 1048.31 283.65 L 1048.31 425.05 L 1217.01 425.05 L 1217.01 511.15 Z  M 1490.81 375.65 L 1490.81 329.45 C 1490.81 318.66 1490.05 307.89 1488.54 297.21 C 1487.3 288.5 1485.27 279.91 1482.48 271.56 C 1481.1 267.46 1479.52 263.43 1477.74 259.48 C 1476.06 255.78 1474.17 252.17 1472.09 248.67 C 1470.11 245.36 1467.95 242.16 1465.61 239.08 C 1463.33 236.08 1460.88 233.22 1458.27 230.51 C 1455.68 227.82 1452.95 225.28 1450.09 222.88 C 1447.25 220.5 1444.28 218.28 1441.2 216.22 C 1438.09 214.13 1434.86 212.22 1431.54 210.48 C 1428.13 208.69 1424.64 207.09 1421.07 205.67 C 1417.33 204.19 1413.52 202.9 1409.66 201.8 C 1405.57 200.65 1401.42 199.69 1397.24 198.93 C 1392.68 198.1 1388.09 197.49 1383.48 197.09 C 1378.44 196.66 1373.38 196.45 1368.31 196.45 L 1354.31 196.45 C 1351.57 196.45 1348.84 196.2 1346.14 195.71 C 1344.08 195.34 1342.06 194.75 1340.12 193.96 C 1339.22 193.59 1338.35 193.18 1337.5 192.73 C 1336.66 192.28 1335.85 191.79 1335.06 191.26 C 1334.26 190.72 1333.48 190.13 1332.74 189.51 C 1331.94 188.84 1331.17 188.13 1330.44 187.38 C 1328.97 185.87 1327.65 184.23 1326.49 182.46 C 1325.43 180.84 1324.53 179.11 1323.81 177.3 C 1323.05 175.37 1322.47 173.37 1322.11 171.33 C 1321.64 168.76 1321.41 166.16 1321.41 163.55 L 1321.41 110.35 C 1321.41 109.09 1321.47 107.84 1321.6 106.59 C 1321.7 105.47 1321.87 104.36 1322.09 103.25 C 1322.3 102.21 1322.57 101.18 1322.89 100.17 C 1323.19 99.18 1323.55 98.21 1323.96 97.27 C 1324.37 96.31 1324.83 95.38 1325.34 94.47 C 1325.88 93.5 1326.47 92.57 1327.11 91.66 C 1327.79 90.69 1328.52 89.75 1329.3 88.85 C 1330.19 87.82 1331.13 86.83 1332.11 85.9 C 1332.98 85.06 1333.9 84.27 1334.85 83.52 C 1335.76 82.81 1336.71 82.14 1337.69 81.51 C 1338.68 80.89 1339.69 80.32 1340.73 79.8 C 1341.81 79.25 1342.92 78.77 1344.05 78.33 C 1346.54 77.38 1349.11 76.67 1351.74 76.22 C 1355.13 75.64 1358.57 75.35 1362.01 75.35 L 1480.61 75.35 L 1480.61 -12.85 L 1369.01 -12.85 C 1357.27 -12.85 1345.54 -11.97 1333.93 -10.22 C 1324.31 -8.77 1314.85 -6.41 1305.68 -3.18 C 1301.6 -1.74 1297.58 -0.1 1293.65 1.72 C 1289.9 3.45 1286.25 5.37 1282.7 7.48 C 1279.28 9.5 1275.97 11.7 1272.78 14.06 C 1269.65 16.37 1266.63 18.85 1263.76 21.48 C 1260.71 24.27 1257.83 27.23 1255.13 30.36 C 1252.42 33.49 1249.89 36.79 1247.57 40.22 C 1245.17 43.75 1242.99 47.42 1241.03 51.2 C 1238.98 55.15 1237.15 59.21 1235.55 63.36 C 1234.8 65.28 1234.11 67.22 1233.46 69.18 C 1232.79 71.2 1232.17 73.23 1231.59 75.28 C 1231.15 76.86 1230.73 78.45 1230.34 80.05 C 1229.94 81.7 1229.57 83.35 1229.22 85 C 1227.98 90.95 1227.07 96.97 1226.49 103.02 C 1225.84 109.88 1225.51 116.76 1225.51 123.65 L 1225.51 150.25 C 1225.51 156.21 1225.75 162.16 1226.22 168.1 C 1226.64 173.42 1227.3 178.73 1228.2 184 C 1229.01 188.75 1230.03 193.46 1231.26 198.12 C 1232.41 202.44 1233.76 206.7 1235.33 210.89 C 1236.8 214.82 1238.47 218.67 1240.33 222.43 C 1242.11 226.04 1244.08 229.55 1246.23 232.94 C 1248.32 236.23 1250.58 239.41 1253 242.46 C 1255.4 245.47 1257.96 248.36 1260.67 251.1 C 1263.46 253.93 1266.41 256.62 1269.48 259.14 C 1272.53 261.64 1275.7 263.98 1278.99 266.15 C 1282.3 268.33 1285.73 270.34 1289.25 272.16 C 1292.84 274.02 1296.53 275.7 1300.29 277.18 C 1304.21 278.72 1308.2 280.07 1312.25 281.21 C 1316.52 282.41 1320.84 283.4 1325.2 284.19 C 1329.91 285.05 1334.65 285.68 1339.42 286.09 C 1344.61 286.53 1349.81 286.75 1355.01 286.75 L 1369.01 286.75 C 1371.75 286.75 1374.48 287 1377.18 287.49 C 1378.86 287.8 1380.5 288.29 1382.07 288.97 C 1382.71 289.25 1383.33 289.56 1383.94 289.91 C 1384.47 290.21 1384.99 290.55 1385.49 290.92 C 1385.97 291.28 1386.43 291.66 1386.86 292.07 C 1387.32 292.5 1387.75 292.96 1388.15 293.44 C 1389.13 294.61 1390.01 295.88 1390.75 297.22 C 1391.59 298.71 1392.28 300.28 1392.84 301.9 C 1393.5 303.83 1393.98 305.82 1394.29 307.84 C 1394.7 310.59 1394.91 313.37 1394.91 316.15 L 1394.91 388.95 C 1394.91 390.21 1394.85 391.46 1394.73 392.71 C 1394.62 393.83 1394.45 394.94 1394.23 396.05 C 1394.02 397.09 1393.76 398.12 1393.44 399.13 C 1393.13 400.12 1392.77 401.09 1392.37 402.03 C 1391.96 402.99 1391.49 403.92 1390.98 404.83 C 1390.44 405.8 1389.85 406.73 1389.22 407.64 C 1388.53 408.61 1387.8 409.55 1387.02 410.45 C 1386.13 411.48 1385.2 412.47 1384.22 413.4 C 1383.34 414.24 1382.43 415.03 1381.48 415.78 C 1380.56 416.49 1379.61 417.16 1378.63 417.79 C 1377.65 418.41 1376.64 418.98 1375.6 419.5 C 1374.51 420.05 1373.41 420.53 1372.28 420.97 C 1369.79 421.92 1367.21 422.63 1364.59 423.08 C 1361.19 423.66 1357.76 423.95 1354.31 423.95 L 1237.41 423.95 L 1237.41 512.15 L 1347.31 512.15 C 1359.06 512.15 1370.79 511.27 1382.4 509.52 C 1392.02 508.07 1401.47 505.71 1410.64 502.48 C 1414.73 501.04 1418.74 499.4 1422.68 497.58 C 1426.42 495.85 1430.08 493.93 1433.63 491.82 C 1437.04 489.8 1440.35 487.6 1443.54 485.24 C 1446.68 482.93 1449.69 480.45 1452.57 477.82 C 1455.62 475.03 1458.5 472.07 1461.2 468.94 C 1463.91 465.81 1466.43 462.51 1468.76 459.08 C 1471.15 455.55 1473.33 451.88 1475.3 448.1 C 1477.35 444.15 1479.18 440.09 1480.78 435.94 C 1481.52 434.02 1482.22 432.08 1482.87 430.12 C 1483.53 428.1 1484.16 426.07 1484.73 424.02 C 1485.18 422.44 1485.59 420.85 1485.98 419.25 C 1486.38 417.6 1486.76 415.95 1487.1 414.3 C 1488.34 408.35 1489.26 402.33 1489.83 396.28 C 1490.49 389.42 1490.81 382.54 1490.81 375.65 Z  M 1792.31 75.35 L 1684.51 75.35 L 1684.51 512.15 L 1588.61 512.15 L 1588.61 75.35 L 1480.81 75.35 L 1480.81 -12.85 L 1792.31 -12.85 L 1792.31 75.35 Z  M 2036.97 288.14 L 2137.95 511.15 L 2032.94 511.15 L 1942.64 308.15 L 1909.21 308.15 L 1909.21 511.15 L 1813.31 511.15 L 1813.31 -13.85 L 1956.11 -13.85 C 1967.05 -13.85 1977.98 -13.14 1988.83 -11.73 C 1997.68 -10.57 2006.41 -8.68 2014.95 -6.08 C 2019.18 -4.79 2023.35 -3.3 2027.45 -1.61 C 2031.27 -0.03 2035 1.74 2038.64 3.71 C 2042.05 5.56 2045.37 7.58 2048.57 9.78 C 2051.67 11.9 2054.65 14.19 2057.49 16.65 C 2060.48 19.22 2063.3 21.99 2065.94 24.94 C 2068.6 27.9 2071.07 31.04 2073.33 34.32 C 2075.68 37.72 2077.81 41.27 2079.7 44.94 C 2081.7 48.81 2083.47 52.79 2085 56.86 C 2085.69 58.69 2086.34 60.54 2086.94 62.41 C 2087.56 64.34 2088.13 66.29 2088.66 68.25 C 2089.06 69.74 2089.44 71.24 2089.79 72.75 C 2090.15 74.3 2090.48 75.86 2090.79 77.42 C 2091.87 82.87 2092.66 88.37 2093.16 93.9 C 2093.73 100.2 2094.01 106.52 2094.01 112.85 L 2094.01 180.05 C 2094.01 188.1 2093.51 196.15 2092.52 204.14 C 2091.67 210.98 2090.3 217.74 2088.43 224.37 C 2086.79 230.19 2084.72 235.86 2082.22 241.36 C 2079.89 246.47 2077.14 251.37 2073.99 256.01 C 2070.9 260.55 2067.42 264.82 2063.6 268.76 C 2059.76 272.72 2055.59 276.33 2051.12 279.56 C 2046.65 282.8 2041.92 285.67 2036.97 288.14 Z  M 1998.11 106.55 L 1998.11 187.05 C 1998.11 190.6 1997.88 194.14 1997.43 197.66 C 1997.13 199.98 1996.64 202.26 1995.96 204.49 C 1995.61 205.61 1995.21 206.71 1994.75 207.78 C 1994.4 208.61 1993.99 209.4 1993.54 210.18 C 1993.15 210.84 1992.73 211.47 1992.26 212.07 C 1991.87 212.58 1991.44 213.07 1990.99 213.53 C 1990.54 213.98 1990.06 214.4 1989.56 214.78 C 1988.96 215.24 1988.34 215.66 1987.69 216.04 C 1986.93 216.49 1986.15 216.89 1985.35 217.24 C 1984.3 217.7 1983.22 218.1 1982.13 218.44 C 1981.63 218.59 1981.12 218.74 1980.62 218.87 C 1980.05 219.02 1979.47 219.16 1978.9 219.29 C 1976.91 219.73 1974.9 220.05 1972.87 220.24 C 1970.09 220.51 1967.3 220.65 1964.51 220.65 L 1909.21 220.65 L 1909.21 73.65 L 1964.51 73.65 C 1968.05 73.65 1971.59 73.87 1975.1 74.31 C 1977.42 74.59 1979.72 75.07 1981.96 75.73 C 1983.12 76.06 1984.25 76.46 1985.36 76.92 C 1986.2 77.27 1987.02 77.67 1987.81 78.12 C 1988.47 78.5 1989.11 78.92 1989.73 79.38 C 1990.23 79.75 1990.72 80.16 1991.17 80.6 C 1991.6 81.02 1992 81.46 1992.37 81.93 C 1992.81 82.5 1993.22 83.09 1993.58 83.7 C 1994.02 84.43 1994.41 85.19 1994.75 85.97 C 1995.21 87 1995.6 88.06 1995.94 89.14 C 1996.09 89.63 1996.24 90.13 1996.37 90.63 C 1996.52 91.19 1996.65 91.76 1996.78 92.33 C 1997.21 94.28 1997.52 96.26 1997.71 98.26 C 1997.98 101.01 1998.11 103.78 1998.11 106.55 Z  M 2375.97 288.14 L 2476.95 511.15 L 2371.94 511.15 L 2281.64 308.15 L 2248.21 308.15 L 2248.21 511.15 L 2152.31 511.15 L 2152.31 -13.85 L 2295.11 -13.85 C 2306.05 -13.85 2316.98 -13.14 2327.83 -11.73 C 2336.68 -10.57 2345.41 -8.68 2353.95 -6.08 C 2358.18 -4.79 2362.35 -3.3 2366.45 -1.61 C 2370.27 -0.03 2374 1.74 2377.64 3.71 C 2381.05 5.56 2384.37 7.58 2387.57 9.78 C 2390.67 11.9 2393.65 14.19 2396.49 16.65 C 2399.48 19.22 2402.3 21.99 2404.94 24.94 C 2407.6 27.9 2410.07 31.04 2412.33 34.32 C 2414.68 37.72 2416.81 41.27 2418.7 44.94 C 2420.7 48.81 2422.47 52.79 2424 56.86 C 2424.69 58.69 2425.34 60.54 2425.94 62.41 C 2426.56 64.34 2427.13 66.29 2427.66 68.25 C 2428.06 69.74 2428.44 71.24 2428.79 72.75 C 2429.15 74.3 2429.48 75.86 2429.79 77.42 C 2430.87 82.87 2431.66 88.37 2432.16 93.9 C 2432.73 100.2 2433.01 106.52 2433.01 112.85 L 2433.01 180.05 C 2433.01 188.1 2432.51 196.15 2431.52 204.14 C 2430.67 210.98 2429.3 217.74 2427.43 224.37 C 2425.79 230.19 2423.72 235.86 2421.22 241.36 C 2418.89 246.47 2416.14 251.37 2412.99 256.01 C 2409.9 260.55 2406.42 264.82 2402.6 268.76 C 2398.76 272.72 2394.59 276.33 2390.12 279.56 C 2385.65 282.8 2380.92 285.67 2375.97 288.14 Z  M 2337.11 106.55 L 2337.11 187.05 C 2337.11 190.6 2336.88 194.14 2336.43 197.66 C 2336.13 199.98 2335.64 202.26 2334.96 204.49 C 2334.61 205.61 2334.21 206.71 2333.75 207.78 C 2333.4 208.61 2332.99 209.4 2332.54 210.18 C 2332.15 210.84 2331.73 211.47 2331.26 212.07 C 2330.87 212.58 2330.44 213.07 2329.99 213.53 C 2329.54 213.98 2329.06 214.4 2328.56 214.78 C 2327.96 215.24 2327.34 215.66 2326.69 216.04 C 2325.93 216.49 2325.15 216.89 2324.35 217.24 C 2323.3 217.7 2322.22 218.1 2321.13 218.44 C 2320.63 218.59 2320.12 218.74 2319.62 218.87 C 2319.05 219.02 2318.47 219.16 2317.9 219.29 C 2315.91 219.73 2313.9 220.05 2311.87 220.24 C 2309.09 220.51 2306.3 220.65 2303.51 220.65 L 2248.21 220.65 L 2248.21 73.65 L 2303.51 73.65 C 2307.05 73.65 2310.59 73.87 2314.1 74.31 C 2316.42 74.59 2318.72 75.07 2320.96 75.73 C 2322.12 76.06 2323.25 76.46 2324.36 76.92 C 2325.2 77.27 2326.02 77.67 2326.81 78.12 C 2327.47 78.5 2328.11 78.92 2328.73 79.38 C 2329.23 79.75 2329.72 80.16 2330.17 80.6 C 2330.6 81.02 2331 81.46 2331.37 81.93 C 2331.81 82.5 2332.22 83.09 2332.58 83.7 C 2333.02 84.43 2333.41 85.19 2333.75 85.97 C 2334.21 87 2334.6 88.06 2334.94 89.14 C 2335.09 89.63 2335.24 90.13 2335.37 90.63 C 2335.52 91.19 2335.65 91.76 2335.78 92.33 C 2336.21 94.28 2336.52 96.26 2336.71 98.26 C 2336.98 101.01 2337.11 103.78 2337.11 106.55 Z " fill-rule="evenodd" fill="rgb(0,0,0)"/><g><path d=" M 165.49 311.743 C 165.381 311.594 165.273 311.443 165.166 311.291 L 101.789 356.115 C 80.43 325.876 67.878 288.982 67.878 249.18 L 67.878 249.18 C 67.878 146.715 151.066 63.527 253.531 63.527 C 270.785 63.527 287.492 65.886 303.348 70.298 L 303.329 70.369 L 303.329 70.369 C 341.914 81.707 364.63 121.897 354.165 160.955 C 351.714 170.101 347.656 178.391 342.376 185.602 C 342.567 185.863 342.755 186.127 342.942 186.391 L 405.298 142.282 L 405.298 142.282 C 426.641 172.514 439.184 209.394 439.184 249.18 C 439.184 351.645 355.996 434.833 253.531 434.833 C 236.566 434.833 220.13 432.553 204.512 428.282 L 204.512 428.282 L 204.516 428.267 C 165.455 417.246 142.361 376.777 152.897 337.456 C 155.47 327.853 159.814 319.195 165.49 311.743 Z  M 471.802 394.436 L 552.863 475.497 L 589 511.634 L 474.598 542.288 L 399.254 466.943 C 357.552 494.844 307.427 511.121 253.531 511.121 C 108.636 511.121 -9 393.485 -9 248.59 C -9 103.695 108.636 -13.941 253.531 -13.941 C 398.426 -13.941 516.062 103.695 516.062 248.59 C 516.062 302.539 499.753 352.709 471.802 394.436 L 471.802 394.436 L 471.802 394.436 L 471.802 394.436 L 471.802 394.436 Z " fill-rule="evenodd" fill="rgb(0,0,0)"/><path d=" M 342.365 256.873 L 277.612 294.258 L 212.859 331.643 C 205.505 335.889 199.535 332.442 199.535 323.95 L 199.535 249.18 L 199.535 174.41 C 199.535 165.918 205.505 162.471 212.859 166.717 L 277.612 204.102 L 342.365 241.487 C 349.719 245.733 349.719 252.627 342.365 256.873 Z " fill="rgb(0,0,0)"/></g></g></g></svg>