<?xml version="1.0" encoding="UTF-8" standalone="no"?><!-- Generator: Gravit.io --><svg xmlns="http://www.w3.org/2000/svg" xmlns:xlink="http://www.w3.org/1999/xlink" style="isolation:isolate" viewBox="9.167 -13.561 598.012 557.288" width="598.012pt" height="557.288pt"><defs><clipPath id="_clipPath_iR7SJ8WxYcaHKQrumdMLvpm4gPbuLZFD"><rect x="9.167" y="-13.561" width="598.012" height="557.288"/></clipPath></defs><g clip-path="url(#_clipPath_iR7SJ8WxYcaHKQrumdMLvpm4gPbuLZFD)"><g style="isolation:isolate"><path d=" M 124.679 354.72 C 103.855 325.239 91.618 289.27 91.618 250.466 L 91.618 250.466 C 91.618 150.569 172.721 69.466 272.618 69.466 C 289.439 69.466 305.728 71.765 321.186 76.067 L 321.167 76.136 L 321.167 76.136 C 358.786 87.19 380.932 126.373 370.729 164.452 C 368.34 173.369 359.605 188.993 359.788 189.25" fill="none" vector-effect="non-scaling-stroke" stroke-width="15" stroke="rgb(0,0,0)" stroke-linejoin="round" stroke-linecap="round" stroke-miterlimit="3"/><path d=" M 420.556 146.211 C 441.38 175.692 453.618 211.661 453.618 250.466 L 453.618 250.466 C 453.618 350.362 372.514 431.466 272.618 431.466 C 255.796 431.466 239.507 429.166 224.049 424.864 L 224.068 424.795 L 224.068 424.795 C 186.449 413.742 164.303 374.559 174.506 336.48 C 176.895 327.563 185.63 311.939 185.448 311.681" fill="none" vector-effect="non-scaling-stroke" stroke-width="15" stroke="rgb(0,0,0)" stroke-linejoin="round" stroke-linecap="round" stroke-miterlimit="3"/><path d=" M 485.418 392.081 L 564.448 471.11 L 599.679 506.341 L 488.144 536.227 L 414.688 462.771 C 374.032 489.973 325.163 505.841 272.618 505.841 C 131.354 505.841 16.667 391.154 16.667 249.89 C 16.667 108.627 131.354 -6.061 272.618 -6.061 C 413.881 -6.061 528.569 108.627 528.569 249.89 C 528.569 302.487 512.669 351.4 485.418 392.081 L 485.418 392.081 L 485.418 392.081 L 485.418 392.081 L 485.418 392.081 Z " fill="none" vector-effect="non-scaling-stroke" stroke-width="15" stroke="rgb(0,0,0)" stroke-linejoin="round" stroke-linecap="round" stroke-miterlimit="3"/><path d=" M 359.225 257.966 L 296.095 294.414 L 232.965 330.862 C 225.795 335.001 219.975 331.641 219.975 323.362 L 219.975 250.466 L 219.975 177.57 C 219.975 169.291 225.795 165.93 232.965 170.07 L 296.095 206.518 L 359.225 242.966 C 366.395 247.105 366.395 253.826 359.225 257.966 Z " fill="none" vector-effect="non-scaling-stroke" stroke-width="15" stroke="rgb(0,0,0)" stroke-linejoin="round" stroke-linecap="round" stroke-miterlimit="3"/></g></g></svg>